{
    "asset" : {
        "generator" : "Khronos glTF Blender I/O v1.6.16",
        "version" : "2.0"
    },
    "scene" : 0,
    "scenes" : [
        {
            "name" : "Scene",
            "nodes" : [
                5
            ]
        }
    ],
    "nodes" : [
        {
            "name" : "Camera",
            "rotation" : [
                0.48353609442710876,
                0.3368716239929199,
                -0.20870362222194672,
                0.7804826498031616
            ],
            "translation" : [
                7.358891487121582,
                4.958309173583984,
                6.925790786743164
            ]
        },
        {
            "name" : "Light",
            "rotation" : [
                0.16907578706741333,
                0.7558803558349609,
                -0.27217134833335876,
                0.570947527885437
            ],
            "translation" : [
                4.076245307922363,
                5.903861999511719,
                -1.0054539442062378
            ]
        },
        {
            "mesh" : 0,
            "name" : "Circle",
            "rotation" : [
                0.42778339982032776,
                0.13110509514808655,
                0.7514053583145142,
                0.484977126121521
            ],
            "scale" : [
                0.23870022594928741,
                0.23870019614696503,
                0.23870019614696503
            ],
            "translation" : [
                0.6552140712738037,
                0.5540905594825745,
                -0.6002383828163147
            ]
        },
        {
            "children" : [
                2
            ],
            "mesh" : 1,
            "name" : "Sphere",
            "scale" : [
                1.0177216529846191,
                1.0177217721939087,
                1.0177217721939087
            ]
        },
        {
            "mesh" : 2,
            "name" : "Sphere.001",
            "rotation" : [
                0,
                0,
                -1,
                7.549790126404332e-08
            ]
        },
        {
            "children" : [
                0,
                1,
                3,
                4
            ],
            "name" : "Empty"
        }
    ],
    "animations" : [
        {
            "channels" : [
                {
                    "sampler" : 0,
                    "target" : {
                        "node" : 3,
                        "path" : "rotation"
                    }
                }
            ],
            "name" : "SphereAction",
            "samplers" : [
                {
                    "input" : 11,
                    "interpolation" : "LINEAR",
                    "output" : 12
                }
            ]
        },
        {
            "channels" : [
                {
                    "sampler" : 0,
                    "target" : {
                        "node" : 4,
                        "path" : "rotation"
                    }
                }
            ],
            "name" : "Sphere.001Action",
            "samplers" : [
                {
                    "input" : 11,
                    "interpolation" : "LINEAR",
                    "output" : 13
                }
            ]
        }
    ],
    "materials" : [
        {
            "doubleSided" : true,
            "name" : "Material",
            "pbrMetallicRoughness" : {
                "baseColorFactor" : [
                    0.003949207719415426,
                    0.003949207719415426,
                    0.003949207719415426,
                    1
                ],
                "metallicFactor" : 0,
                "roughnessFactor" : 0.4000000059604645
            }
        },
        {
            "doubleSided" : true,
            "name" : "a",
            "pbrMetallicRoughness" : {
                "baseColorFactor" : [
                    0.8000000715255737,
                    0.3891936242580414,
                    0.044562216848134995,
                    1
                ],
                "metallicFactor" : 0,
                "roughnessFactor" : 0.5
            }
        }
    ],
    "meshes" : [
        {
            "name" : "Circle",
            "primitives" : [
                {
                    "attributes" : {
                        "POSITION" : 0,
                        "NORMAL" : 1,
                        "TEXCOORD_0" : 2
                    },
                    "indices" : 3,
                    "material" : 0
                }
            ]
        },
        {
            "name" : "Sphere",
            "primitives" : [
                {
                    "attributes" : {
                        "POSITION" : 4,
                        "NORMAL" : 5,
                        "TEXCOORD_0" : 6
                    },
                    "indices" : 7,
                    "material" : 1
                }
            ]
        },
        {
            "name" : "Sphere.001",
            "primitives" : [
                {
                    "attributes" : {
                        "POSITION" : 8,
                        "NORMAL" : 9,
                        "TEXCOORD_0" : 10
                    },
                    "indices" : 7,
                    "material" : 1
                }
            ]
        }
    ],
    "accessors" : [
        {
            "bufferView" : 0,
            "componentType" : 5126,
            "count" : 2308,
            "max" : [
                1.77305269241333,
                4.348198413848877,
                0.9377216696739197
            ],
            "min" : [
                -0.957395613193512,
                -0.018132757395505905,
                -4.450937271118164
            ],
            "type" : "VEC3"
        },
        {
            "bufferView" : 1,
            "componentType" : 5126,
            "count" : 2308,
            "type" : "VEC3"
        },
        {
            "bufferView" : 2,
            "componentType" : 5126,
            "count" : 2308,
            "type" : "VEC2"
        },
        {
            "bufferView" : 3,
            "componentType" : 5123,
            "count" : 13824,
            "type" : "SCALAR"
        },
        {
            "bufferView" : 4,
            "componentType" : 5126,
            "count" : 451,
            "max" : [
                1.00584876537323,
                1,
                1.0058485269546509
            ],
            "min" : [
                -1.0058481693267822,
                -4.371138828673793e-08,
                -1.0058480501174927
            ],
            "type" : "VEC3"
        },
        {
            "bufferView" : 5,
            "componentType" : 5126,
            "count" : 451,
            "type" : "VEC3"
        },
        {
            "bufferView" : 6,
            "componentType" : 5126,
            "count" : 451,
            "type" : "VEC2"
        },
        {
            "bufferView" : 7,
            "componentType" : 5123,
            "count" : 2400,
            "type" : "SCALAR"
        },
        {
            "bufferView" : 8,
            "componentType" : 5126,
            "count" : 451,
            "max" : [
                1.00584876537323,
                1,
                1.0058485269546509
            ],
            "min" : [
                -1.0058481693267822,
                -4.371138828673793e-08,
                -1.0058480501174927
            ],
            "type" : "VEC3"
        },
        {
            "bufferView" : 9,
            "componentType" : 5126,
            "count" : 451,
            "type" : "VEC3"
        },
        {
            "bufferView" : 10,
            "componentType" : 5126,
            "count" : 451,
            "type" : "VEC2"
        },
        {
            "bufferView" : 11,
            "componentType" : 5126,
            "count" : 21,
            "max" : [
                0.875
            ],
            "min" : [
                0.041666666666666664
            ],
            "type" : "SCALAR"
        },
        {
            "bufferView" : 12,
            "componentType" : 5126,
            "count" : 21,
            "type" : "VEC4"
        },
        {
            "bufferView" : 13,
            "componentType" : 5126,
            "count" : 21,
            "type" : "VEC4"
        }
    ],
    "bufferViews" : [
        {
            "buffer" : 0,
            "byteLength" : 27696,
            "byteOffset" : 0
        },
        {
            "buffer" : 0,
            "byteLength" : 27696,
            "byteOffset" : 27696
        },
        {
            "buffer" : 0,
            "byteLength" : 18464,
            "byteOffset" : 55392
        },
        {
            "buffer" : 0,
            "byteLength" : 27648,
            "byteOffset" : 73856
        },
        {
            "buffer" : 0,
            "byteLength" : 5412,
            "byteOffset" : 101504
        },
        {
            "buffer" : 0,
            "byteLength" : 5412,
            "byteOffset" : 106916
        },
        {
            "buffer" : 0,
            "byteLength" : 3608,
            "byteOffset" : 112328
        },
        {
            "buffer" : 0,
            "byteLength" : 4800,
            "byteOffset" : 115936
        },
        {
            "buffer" : 0,
            "byteLength" : 5412,
            "byteOffset" : 120736
        },
        {
            "buffer" : 0,
            "byteLength" : 5412,
            "byteOffset" : 126148
        },
        {
            "buffer" : 0,
            "byteLength" : 3608,
            "byteOffset" : 131560
        },
        {
            "buffer" : 0,
            "byteLength" : 84,
            "byteOffset" : 135168
        },
        {
            "buffer" : 0,
            "byteLength" : 336,
            "byteOffset" : 135252
        },
        {
            "buffer" : 0,
            "byteLength" : 336,
            "byteOffset" : 135588
        }
    ],
    "buffers" : [
        {
            "byteLength" : 135924,
            "uri" : "data:application/octet-stream;base64,"
        }
    ]
}
